<?xml version="1.0" encoding="UTF-8" standalone="no"?>
<svg
   xmlns:dc="http://purl.org/dc/elements/1.1/"
   xmlns:cc="http://creativecommons.org/ns#"
   xmlns:rdf="http://www.w3.org/1999/02/22-rdf-syntax-ns#"
   xmlns:svg="http://www.w3.org/2000/svg"
   xmlns="http://www.w3.org/2000/svg"
   xmlns:sodipodi="http://sodipodi.sourceforge.net/DTD/sodipodi-0.dtd"
   xmlns:inkscape="http://www.inkscape.org/namespaces/inkscape"
   width="331.46799mm"
   height="331.46799mm"
   viewBox="0 0 331.46799 331.46799"
   version="1.1"
   id="svg8"
   inkscape:version="1.0.1 (0767f8302a, 2020-10-17)"
   sodipodi:docname="map.svg"
   inkscape:export-filename="/home/lev/Documents/Projects/writing/map.png"
   inkscape:export-xdpi="1101.4301"
   inkscape:export-ydpi="1101.4301">
  <defs
     id="defs2">
    <rect
       x="-20.594942"
       y="183.81345"
       width="76.687691"
       height="14.08834"
       id="rect3846" />
    <rect
       x="20.887484"
       y="117.47214"
       width="176.64279"
       height="43.422195"
       id="rect3696" />
    <marker
       style="overflow:visible"
       id="marker1624"
       refX="0"
       refY="0"
       orient="auto"
       inkscape:stockid="Arrow2Lend"
       inkscape:isstock="true">
      <path
         transform="matrix(-1.1,0,0,-1.1,-1.1,0)"
         d="M 8.7185878,4.0337352 -2.2072895,0.01601326 8.7185884,-4.0017078 c -1.7454984,2.3720609 -1.7354408,5.6174519 -6e-7,8.035443 z"
         style="fill:#9d0064;fill-opacity:1;fill-rule:evenodd;stroke:#9d0064;stroke-width:0.625;stroke-linejoin:round;stroke-opacity:1"
         id="path1622" />
    </marker>
    <marker
       style="overflow:visible"
       id="Arrow1Mstart"
       refX="0"
       refY="0"
       orient="auto"
       inkscape:stockid="Arrow1Mstart"
       inkscape:isstock="true">
      <path
         transform="matrix(0.4,0,0,0.4,4,0)"
         style="fill:#9d0064;fill-opacity:1;fill-rule:evenodd;stroke:#9d0064;stroke-width:1pt;stroke-opacity:1"
         d="M 0,0 5,-5 -12.5,0 5,5 Z"
         id="path876" />
    </marker>
    <marker
       style="overflow:visible"
       id="marker1504"
       refX="0"
       refY="0"
       orient="auto"
       inkscape:stockid="Arrow2Lend"
       inkscape:isstock="true">
      <path
         transform="matrix(-1.1,0,0,-1.1,-1.1,0)"
         d="M 8.7185878,4.0337352 -2.2072895,0.01601326 8.7185884,-4.0017078 c -1.7454984,2.3720609 -1.7354408,5.6174519 -6e-7,8.035443 z"
         style="fill:#9d0064;fill-opacity:1;fill-rule:evenodd;stroke:#9d0064;stroke-width:0.625;stroke-linejoin:round;stroke-opacity:1"
         id="path1502" />
    </marker>
    <marker
       style="overflow:visible"
       id="marker1392"
       refX="0"
       refY="0"
       orient="auto"
       inkscape:stockid="Arrow2Lend"
       inkscape:isstock="true">
      <path
         transform="matrix(-1.1,0,0,-1.1,-1.1,0)"
         d="M 8.7185878,4.0337352 -2.2072895,0.01601326 8.7185884,-4.0017078 c -1.7454984,2.3720609 -1.7354408,5.6174519 -6e-7,8.035443 z"
         style="fill:#9d0064;fill-opacity:1;fill-rule:evenodd;stroke:#9d0064;stroke-width:0.625;stroke-linejoin:round;stroke-opacity:1"
         id="path1390" />
    </marker>
    <marker
       style="overflow:visible"
       id="Arrow2Lend"
       refX="0"
       refY="0"
       orient="auto"
       inkscape:stockid="Arrow2Lend"
       inkscape:isstock="true"
       inkscape:collect="always">
      <path
         transform="matrix(-1.1,0,0,-1.1,-1.1,0)"
         d="M 8.7185878,4.0337352 -2.2072895,0.01601326 8.7185884,-4.0017078 c -1.7454984,2.3720609 -1.7354408,5.6174519 -6e-7,8.035443 z"
         style="fill:#9d0064;fill-opacity:1;fill-rule:evenodd;stroke:#9d0064;stroke-width:0.625;stroke-linejoin:round;stroke-opacity:1"
         id="path891" />
    </marker>
    <rect
       x="20.887484"
       y="117.47214"
       width="176.64279"
       height="43.422195"
       id="rect3704" />
    <filter
       inkscape:collect="always"
       style="color-interpolation-filters:sRGB"
       id="filter3706"
       x="-0.0058689369"
       width="1.0117379"
       y="-0.056126785"
       height="1.1122535">
      <feGaussianBlur
         inkscape:collect="always"
         stdDeviation="0.21691215"
         id="feGaussianBlur3708" />
    </filter>
    <rect
       x="-20.594942"
       y="183.81345"
       width="76.687691"
       height="14.08834"
       id="rect3874" />
    <rect
       x="-20.594942"
       y="183.81345"
       width="76.687691"
       height="14.08834"
       id="rect3880" />
    <rect
       x="-20.594942"
       y="183.81345"
       width="76.687691"
       height="14.08834"
       id="rect3886" />
    <rect
       x="-20.594942"
       y="183.81345"
       width="76.687691"
       height="14.08834"
       id="rect3892" />
    <rect
       x="-20.594942"
       y="183.81345"
       width="76.687691"
       height="14.08834"
       id="rect4014" />
  </defs>
  <sodipodi:namedview
     id="base"
     pagecolor="#ffffff"
     bordercolor="#666666"
     borderopacity="1.0"
     inkscape:pageopacity="0.0"
     inkscape:pageshadow="2"
     inkscape:zoom="3.4845205"
     inkscape:cx="967.86565"
     inkscape:cy="531.53384"
     inkscape:document-units="mm"
     inkscape:current-layer="layer1"
     inkscape:document-rotation="0"
     showgrid="false"
     showguides="false"
     inkscape:snap-nodes="true"
     inkscape:snap-smooth-nodes="true"
     inkscape:window-width="1515"
     inkscape:window-height="968"
     inkscape:window-x="38"
     inkscape:window-y="65"
     inkscape:window-maximized="0"
     fit-margin-top="0"
     fit-margin-left="0"
     fit-margin-right="0"
     fit-margin-bottom="0"
     inkscape:snap-object-midpoints="true"
     inkscape:snap-midpoints="true"
     inkscape:snap-intersection-paths="true"
     inkscape:object-paths="true"
     showborder="false"
     inkscape:showpageshadow="false" />
  <metadata
     id="metadata5">
    <rdf:RDF>
      <cc:Work
         rdf:about="">
        <dc:format>image/svg+xml</dc:format>
        <dc:type
           rdf:resource="http://purl.org/dc/dcmitype/StillImage" />
        <dc:title></dc:title>
      </cc:Work>
    </rdf:RDF>
  </metadata>
  <g
     inkscape:label="Layer 1"
     inkscape:groupmode="layer"
     id="layer1"
     transform="translate(34.682706,25.312066)">
    <rect
       style="fill:#7c6f91;stroke:#17151c;stroke-width:2.865;stroke-linecap:round;stroke-linejoin:round;stroke-miterlimit:4;stroke-dasharray:none;stroke-opacity:1"
       id="rect847"
       width="328.60318"
       height="328.6037"
       x="-33.250206"
       y="-23.879566" />
    <path
       id="path3838"
       style="opacity:1;mix-blend-mode:multiply;fill:#7c6f91;fill-opacity:0.522036;fill-rule:evenodd;stroke:none;stroke-width:2.865;stroke-linecap:round;stroke-miterlimit:4;stroke-dasharray:none;stroke-dashoffset:0;stroke-opacity:0.521569"
       d="m -33.250209,75.395485 3e-6,65.026795 46.50875,8.43202 67.019915,70.32853 c 0,0 0.39243,4.68659 1.058225,11.75329 0.332907,3.53333 0.733745,7.66183 1.188556,12.09694 0.45481,4.4351 0.963352,9.17686 1.510368,13.93711 0.547028,4.76028 1.132532,9.53892 1.742073,14.04773 0.60954,4.5088 1.24291,8.74795 1.885281,12.4287 0.321177,1.84036 0.644836,3.54113 0.968651,5.06635 0.323825,1.52527 0.648041,2.87464 0.970798,4.0127 0.322747,1.13802 0.644255,2.06472 0.962215,2.74349 0.158986,0.33938 0.317051,0.61682 0.474138,0.82785 0.157086,0.21103 0.312967,0.35573 0.467698,0.42942 0.309471,0.1474 0.85411,0.34486 1.603695,0.58603 0.749574,0.24116 1.704045,0.52578 2.832476,0.84698 2.256862,0.64238 5.210177,1.43134 8.614897,2.31148 5.64476,1.4592 12.53503,3.16891 19.54468,4.88032 h 148.82922 v -5.76503 l -73.52265,-36.86802 c 0,0 -16.30165,-3.80974 -33.22223,-7.91425 -8.46028,-2.05227 -17.07542,-4.17785 -23.88482,-5.93815 -3.40473,-0.88013 -6.35804,-1.6691 -8.6149,-2.31148 -1.12843,-0.3212 -2.08291,-0.60581 -2.83248,-0.84698 -0.74958,-0.24114 -1.29422,-0.4386 -1.60369,-0.586 -0.15473,-0.0737 -0.31061,-0.21839 -0.4677,-0.42945 -0.15709,-0.21103 -0.31515,-0.48847 -0.47414,-0.82785 -0.31796,-0.67874 -0.63947,-1.60547 -0.96221,-2.74349 -0.32276,-1.13805 -0.64698,-2.48743 -0.9708,-4.01267 -0.32382,-1.52525 -0.64747,-3.22599 -0.96865,-5.06638 -0.64238,-3.68075 -1.27574,-7.91987 -1.88528,-12.42869 -0.60954,-4.50879 -1.19505,-9.28746 -1.74207,-14.04771 -0.54702,-4.76028 -1.05556,-9.50203 -1.51037,-13.93714 -0.45481,-4.4351 -0.85565,-8.56361 -1.18856,-12.09693 -0.6658,-7.06671 -1.05822,-11.7533 -1.05822,-11.7533 L 51.002736,97.24918 Z"
       sodipodi:nodetypes="ccccsssssssssssssccccssssssssssssssccc" />
    <path
       id="path844"
       style="fill:#deaa87;stroke:none;stroke-width:2.865;stroke-linecap:round;stroke-miterlimit:4;stroke-dasharray:none;stroke-dashoffset:0;stroke-opacity:1"
       d="m -33.250206,-23.916011 v 99.275052 l 84.252942,21.853694 64.572304,70.328515 c 0,0 0.37809,4.6866 1.01957,11.75329 0.32075,3.53334 0.70695,7.66183 1.14515,12.09693 0.4382,4.43511 0.92817,9.17688 1.45521,13.93714 0.52705,4.76026 1.09117,9.53891 1.67845,14.04772 0.58728,4.5088 1.19752,8.74795 1.81643,12.4287 0.30945,1.84037 0.62128,3.54111 0.93327,5.06635 0.312,1.52525 0.62438,2.87464 0.93535,4.01268 0.31096,1.13804 0.62072,2.06475 0.92707,2.7435 0.15318,0.33938 0.30547,0.61682 0.45682,0.82786 0.15135,0.21104 0.30154,0.35573 0.45062,0.42943 0.29817,0.1474 0.82292,0.34485 1.54513,0.58601 0.7222,0.24116 1.64181,0.52578 2.72903,0.84698 2.17444,0.64239 5.0199,1.43134 8.30027,2.31148 6.56073,1.76029 14.86124,3.88589 23.01255,5.93814 16.30262,4.10452 32.00889,7.91425 32.00889,7.91425 l 78.94258,42.20597 22.42154,-10e-6 V -23.916011 Z"
       sodipodi:nodetypes="ccccssssssssssssssccccc" />
    <path
       style="color:#000000;font-style:normal;font-variant:normal;font-weight:normal;font-stretch:normal;font-size:medium;line-height:normal;font-family:sans-serif;font-variant-ligatures:normal;font-variant-position:normal;font-variant-caps:normal;font-variant-numeric:normal;font-variant-alternates:normal;font-variant-east-asian:normal;font-feature-settings:normal;font-variation-settings:normal;text-indent:0;text-align:start;text-decoration:none;text-decoration-line:none;text-decoration-style:solid;text-decoration-color:#000000;letter-spacing:normal;word-spacing:normal;text-transform:none;writing-mode:lr-tb;direction:ltr;text-orientation:mixed;dominant-baseline:auto;baseline-shift:baseline;text-anchor:start;white-space:normal;shape-padding:0;shape-margin:0;inline-size:0;clip-rule:nonzero;display:inline;overflow:visible;visibility:visible;opacity:1;isolation:auto;mix-blend-mode:normal;color-interpolation:sRGB;color-interpolation-filters:linearRGB;solid-color:#000000;solid-opacity:1;vector-effect:none;fill:#916f6f;fill-opacity:1;fill-rule:nonzero;stroke:none;stroke-width:2.865;stroke-linecap:butt;stroke-linejoin:round;stroke-miterlimit:4;stroke-dasharray:none;stroke-dashoffset:0;stroke-opacity:1;color-rendering:auto;image-rendering:auto;shape-rendering:auto;text-rendering:auto;enable-background:accumulate;stop-color:#000000;stop-opacity:1"
       d="M 102.01367,-9.5019531 C 96.293259,-9.3807995 91.405266,-8.0380669 87.740234,-5.8125 83.016165,-2.9438387 80.392701,1.6214559 81.113281,6.5527344 78.007402,21.073906 76.401926,29.577097 75.238281,34.402344 74.654948,36.821234 74.162685,38.323633 73.75,39.109375 73.337315,39.895117 73.22056,39.927042 72.816406,40.033203 72.0081,40.245525 69.401579,39.767394 65.134766,40.824219 60.867952,41.881043 54.844494,44.575948 45.953125,51.388672 23.966244,68.21385 14.541779,72.900751 8.3691406,74.617188 c -3.0863192,0.858218 -5.4561177,0.994344 -8.3925781,1.533203 -2.9364604,0.538859 -6.3483662,1.496468 -11.2382815,3.953125 l 1.2871096,2.560546 C -5.2908626,80.310983 -2.2468648,79.471742 0.49414062,78.96875 3.235146,78.465758 5.7663329,78.314162 9.1367188,77.376953 15.87749,75.502534 25.599216,70.570864 47.695312,53.662109 c 8.685094,-6.654671 14.352692,-9.121813 18.126954,-10.05664 3.774261,-0.934827 5.558103,-0.234161 7.722656,-0.802735 1.082276,-0.284286 2.097903,-1.134627 2.742187,-2.361328 0.644285,-1.226701 1.133755,-2.868515 1.736329,-5.367187 1.205146,-4.997344 2.792077,-13.430263 5.908203,-27.9941409 0.03978,-0.1885512 0.0411,-0.383189 0.0039,-0.5722656 -0.751058,-3.8858967 1.122115,-7.34032252 5.292969,-9.8730469 4.170853,-2.5327243 10.632027,-3.9092942 18.43554,-2.9941406 15.60704,1.8303071 36.56687,12.7502483 55.38282,40.787109 0.0875,0.130038 0.19567,0.244844 0.32031,0.339844 7.70366,5.876008 9.63963,10.91828 9.2832,16.027344 -0.35643,5.109064 -3.29396,10.482238 -6.10547,16.285156 -2.81151,5.802918 -5.47765,12.103845 -4.68554,19.169922 0.7921,7.066077 5.08029,14.64622 15.45898,22.94336 0.4248,0.33929 1.00506,0.40889 1.49805,0.17969 20.85873,-9.694009 29.79205,-11.865143 35.36328,-11.230472 2.78561,0.317336 4.86451,1.31169 7.48242,2.615232 2.58216,1.28575 5.6647,2.84101 10.11133,4.04688 8.33197,3.30967 13.78727,5.51095 17.32226,7.47851 3.53499,1.96757 5.07698,3.55599 6.11524,5.97852 2.06127,4.80951 1.68498,13.71822 6.66211,33.20508 -2.12248,11.14049 -6.22101,14.90034 -11.08203,17.27148 -4.90164,2.39095 -10.95277,3.11981 -15.91407,7.83594 -0.11232,0.10651 -0.20664,0.23051 -0.27929,0.36719 -3.35996,6.34117 -6.84355,9.8809 -9.91407,12.64843 -3.07051,2.76754 -5.87006,4.77587 -7.42187,8.10938 -1.55181,3.3335 -1.59805,7.66483 0.29101,14.62695 1.88906,6.96212 5.72468,16.7082 12.23243,31.24219 0.10342,0.23016 0.2658,0.42892 0.4707,0.57617 10.69832,7.69486 15.6626,14.04382 19.32226,20.17774 3.62779,6.08049 5.9895,12.08233 11.17579,18.74023 l 12.17753,20.54175 4.67988,0.23374 -14.31835,-22.10752 c -0.0449,-0.0943 -0.0999,-0.18333 -0.16406,-0.26563 -5.02033,-6.3942 -7.28744,-12.2362 -11.08985,-18.60937 -3.75769,-6.29823 -9.06102,-12.99557 -19.76953,-20.76563 -6.38484,-14.27963 -10.15772,-23.90587 -11.95117,-30.51562 -1.80858,-6.6655 -1.62467,-10.16616 -0.46094,-12.66602 1.16373,-2.49986 3.56659,-4.32544 6.74414,-7.18945 3.12674,-2.8182 6.86381,-6.65978 10.35547,-13.14648 4.18679,-3.9081 9.6648,-4.6135 15.08985,-7.25977 5.46854,-2.66748 10.49137,-7.61565 12.70703,-19.5625 0.0381,-0.20548 0.0307,-0.4168 -0.0215,-0.61914 -5.03063,-19.54163 -4.30713,-27.97722 -6.88672,-33.99609 -1.28979,-3.00944 -3.52664,-5.22241 -7.35547,-7.35352 -3.82882,-2.13111 -9.32193,-4.32729 -17.6582,-7.63867 -0.0523,-0.0207 -0.10578,-0.0383 -0.16015,-0.0527 -4.26424,-1.13703 -7.09496,-2.583197 -9.73243,-3.896481 -2.63746,-1.313283 -5.13249,-2.522155 -8.43554,-2.898437 -6.50033,-0.740514 -15.73081,1.725667 -36.01758,11.095698 -9.47674,-7.760081 -13.105,-14.445784 -13.7793,-20.460932 -0.69112,-6.165199 1.65252,-11.895787 4.41602,-17.59961 2.76349,-5.703823 5.96644,-11.311649 6.38672,-17.335937 0.41598,-5.962807 -2.21565,-12.14088 -10.19532,-18.3125 -19.14584,-28.4499659 -40.72817,-39.9413426 -57.3164,-41.8867191 -2.07748,-0.2436347 -4.07757,-0.3372596 -5.98438,-0.296875 z"
       id="path4048"
       sodipodi:nodetypes="sscsssscssccsscssssccssccsssccsscsscsccsssccscccccscssscsscssccsscssscsss" />
    <path
       sodipodi:type="star"
       style="fill:#c83737;stroke:#c83737;stroke-width:0.568251;stroke-linecap:butt;stroke-linejoin:round;stroke-miterlimit:4;stroke-dasharray:none;stroke-opacity:1"
       id="path849"
       sodipodi:sides="3"
       sodipodi:cx="191.77383"
       sodipodi:cy="47.832066"
       sodipodi:r1="3.3700292"
       sodipodi:r2="1.6850147"
       sodipodi:arg1="-1.5707963"
       sodipodi:arg2="-0.52359878"
       inkscape:flatsided="true"
       inkscape:rounded="0"
       inkscape:randomized="0"
       d="m 191.77383,44.462036 2.91854,5.055044 -5.83707,0 z"
       inkscape:transform-center-y="-0.84250498"
       inkscape:transform-center-x="-4.0469724e-06" />
    <path
       sodipodi:type="star"
       style="fill:#93ac93;stroke:#93ac93;stroke-width:1.29338;stroke-linecap:butt;stroke-linejoin:round;stroke-miterlimit:4;stroke-dasharray:none;stroke-opacity:1"
       id="path851"
       sodipodi:sides="3"
       sodipodi:cx="124.15114"
       sodipodi:cy="104.76466"
       sodipodi:r1="7.6704173"
       sodipodi:r2="3.8352087"
       sodipodi:arg1="-1.5707963"
       sodipodi:arg2="-0.52359878"
       inkscape:flatsided="true"
       inkscape:rounded="0"
       inkscape:randomized="0"
       d="m 124.15114,97.094246 6.64277,11.505624 -13.28555,0 z"
       inkscape:transform-center-y="-1.9176003"
       inkscape:transform-center-x="4.0025168e-06" />
    <g
       id="g1436"
       transform="matrix(0.79896878,0,0,0.79896878,89.9756,31.164807)">
      <path
         style="fill:none;stroke:#9d0064;stroke-width:1.10913;stroke-linecap:round;stroke-linejoin:miter;stroke-miterlimit:4;stroke-dasharray:none;stroke-opacity:1"
         d="m 169.47775,124.94942 9.69202,9.69202"
         id="path1368" />
      <path
         style="fill:none;stroke:#9d0064;stroke-width:1.10913;stroke-linecap:round;stroke-linejoin:miter;stroke-miterlimit:4;stroke-dasharray:none;stroke-opacity:1"
         d="m 179.16977,124.94942 -9.69202,9.69202"
         id="path1370" />
    </g>
    <path
       sodipodi:type="star"
       style="fill:#c83737;stroke:#c83737;stroke-width:0.568251;stroke-linecap:butt;stroke-linejoin:round;stroke-miterlimit:4;stroke-dasharray:none;stroke-opacity:1"
       id="path1372"
       sodipodi:sides="3"
       sodipodi:cx="198.9109"
       sodipodi:cy="56.166706"
       sodipodi:r1="3.3700292"
       sodipodi:r2="1.6850147"
       sodipodi:arg1="-1.5707963"
       sodipodi:arg2="-0.52359878"
       inkscape:flatsided="true"
       inkscape:rounded="0"
       inkscape:randomized="0"
       d="m 198.9109,52.796677 2.91853,5.055044 -5.83706,0 z"
       inkscape:transform-center-y="-0.84250498"
       inkscape:transform-center-x="-4.0469724e-06" />
    <path
       sodipodi:type="star"
       style="fill:#c83737;stroke:#c83737;stroke-width:0.568251;stroke-linecap:butt;stroke-linejoin:round;stroke-miterlimit:4;stroke-dasharray:none;stroke-opacity:1"
       id="path1374"
       sodipodi:sides="3"
       sodipodi:cx="211.98915"
       sodipodi:cy="54.126095"
       sodipodi:r1="3.3700292"
       sodipodi:r2="1.6850147"
       sodipodi:arg1="-1.5707963"
       sodipodi:arg2="-0.52359878"
       inkscape:flatsided="true"
       inkscape:rounded="0"
       inkscape:randomized="0"
       d="m 211.98915,50.756066 2.91853,5.055044 -5.83706,-10e-7 z"
       inkscape:transform-center-y="-0.84250498"
       inkscape:transform-center-x="-4.0469724e-06" />
    <path
       sodipodi:type="star"
       style="fill:#c83737;stroke:#c83737;stroke-width:0.568251;stroke-linecap:butt;stroke-linejoin:round;stroke-miterlimit:4;stroke-dasharray:none;stroke-opacity:1"
       id="path1376"
       sodipodi:sides="3"
       sodipodi:cx="204.84251"
       sodipodi:cy="50.406506"
       sodipodi:r1="3.3700292"
       sodipodi:r2="1.6850147"
       sodipodi:arg1="-1.5707963"
       sodipodi:arg2="-0.52359878"
       inkscape:flatsided="true"
       inkscape:rounded="0"
       inkscape:randomized="0"
       d="m 204.84251,47.036476 2.91853,5.055044 -5.83706,0 z"
       inkscape:transform-center-y="-0.84250498"
       inkscape:transform-center-x="-4.0469724e-06" />
    <path
       sodipodi:type="star"
       style="fill:#c83737;stroke:#c83737;stroke-width:0.568251;stroke-linecap:butt;stroke-linejoin:round;stroke-miterlimit:4;stroke-dasharray:none;stroke-opacity:1"
       id="path1378"
       sodipodi:sides="3"
       sodipodi:cx="199.13095"
       sodipodi:cy="45.180134"
       sodipodi:r1="3.3700292"
       sodipodi:r2="1.6850147"
       sodipodi:arg1="-1.5707963"
       sodipodi:arg2="-0.52359878"
       inkscape:flatsided="true"
       inkscape:rounded="0"
       inkscape:randomized="0"
       d="m 199.13095,41.810105 2.91853,5.055044 -5.83706,-1e-6 z"
       inkscape:transform-center-y="-0.84250498"
       inkscape:transform-center-x="-4.0469724e-06" />
    <path
       sodipodi:type="star"
       style="fill:#c83737;stroke:#c83737;stroke-width:0.568251;stroke-linecap:butt;stroke-linejoin:round;stroke-miterlimit:4;stroke-dasharray:none;stroke-opacity:1"
       id="path1380"
       sodipodi:sides="3"
       sodipodi:cx="282.55194"
       sodipodi:cy="126.73267"
       sodipodi:r1="3.3700292"
       sodipodi:r2="1.6850147"
       sodipodi:arg1="-1.5707963"
       sodipodi:arg2="-0.52359878"
       inkscape:flatsided="true"
       inkscape:rounded="0"
       inkscape:randomized="0"
       d="m 282.55194,123.36264 2.91853,5.05505 -5.83706,0 z"
       inkscape:transform-center-y="-0.84250498"
       inkscape:transform-center-x="-4.0469724e-06" />
    <path
       style="fill:none;stroke:#9d0064;stroke-width:0.6477;stroke-linecap:butt;stroke-linejoin:miter;stroke-miterlimit:3.7;stroke-dasharray:none;stroke-opacity:1;marker-end:url(#marker1392)"
       d="M 279.63827,85.313368 239.34014,129.56775"
       id="path1388" />
    <g
       id="g1442"
       transform="matrix(0.79896878,0,0,0.79896878,79.796045,36.994748)">
      <path
         style="fill:none;stroke:#9d0064;stroke-width:1.10913;stroke-linecap:round;stroke-linejoin:miter;stroke-miterlimit:4;stroke-dasharray:none;stroke-opacity:1"
         d="m 169.47775,124.94942 9.69202,9.69202"
         id="path1438" />
      <path
         style="fill:none;stroke:#9d0064;stroke-width:1.10913;stroke-linecap:round;stroke-linejoin:miter;stroke-miterlimit:4;stroke-dasharray:none;stroke-opacity:1"
         d="m 179.16977,124.94942 -9.69202,9.69202"
         id="path1440" />
    </g>
    <g
       id="g1448"
       transform="matrix(0.79896878,0,0,0.79896878,68.492769,30.986333)">
      <path
         style="fill:none;stroke:#9d0064;stroke-width:1.10913;stroke-linecap:round;stroke-linejoin:miter;stroke-miterlimit:4;stroke-dasharray:none;stroke-opacity:1"
         d="m 169.47775,124.94942 9.69202,9.69202"
         id="path1444" />
      <path
         style="fill:none;stroke:#9d0064;stroke-width:1.10913;stroke-linecap:round;stroke-linejoin:miter;stroke-miterlimit:4;stroke-dasharray:none;stroke-opacity:1"
         d="m 179.16977,124.94942 -9.69202,9.69202"
         id="path1446" />
    </g>
    <g
       id="g1454"
       transform="matrix(0.79896878,0,0,0.79896878,9.5637626,-62.144029)">
      <path
         style="fill:none;stroke:#9d0064;stroke-width:1.10913;stroke-linecap:round;stroke-linejoin:miter;stroke-miterlimit:4;stroke-dasharray:none;stroke-opacity:1"
         d="m 169.47775,124.94942 9.69202,9.69202"
         id="path1450" />
      <path
         style="fill:none;stroke:#9d0064;stroke-width:1.10913;stroke-linecap:round;stroke-linejoin:miter;stroke-miterlimit:4;stroke-dasharray:none;stroke-opacity:1"
         d="m 179.16977,124.94942 -9.69202,9.69202"
         id="path1452" />
    </g>
    <g
       id="g1460"
       transform="matrix(0.79896878,0,0,0.79896878,-3.9208333,-61.816858)">
      <path
         style="fill:none;stroke:#9d0064;stroke-width:1.10913;stroke-linecap:round;stroke-linejoin:miter;stroke-miterlimit:4;stroke-dasharray:none;stroke-opacity:1"
         d="m 169.47775,124.94942 9.69202,9.69202"
         id="path1456" />
      <path
         style="fill:none;stroke:#9d0064;stroke-width:1.10913;stroke-linecap:round;stroke-linejoin:miter;stroke-miterlimit:4;stroke-dasharray:none;stroke-opacity:1"
         d="m 179.16977,124.94942 -9.69202,9.69202"
         id="path1458" />
    </g>
    <g
       id="g1466"
       transform="matrix(0.79896878,0,0,0.79896878,-53.430454,-81.983718)">
      <path
         style="fill:none;stroke:#9d0064;stroke-width:1.10913;stroke-linecap:round;stroke-linejoin:miter;stroke-miterlimit:4;stroke-dasharray:none;stroke-opacity:1"
         d="m 169.47775,124.94942 9.69202,9.69202"
         id="path1462" />
      <path
         style="fill:none;stroke:#9d0064;stroke-width:1.10913;stroke-linecap:round;stroke-linejoin:miter;stroke-miterlimit:4;stroke-dasharray:none;stroke-opacity:1"
         d="m 179.16977,124.94942 -9.69202,9.69202"
         id="path1464" />
    </g>
    <g
       id="g1472"
       transform="matrix(0.79896878,0,0,0.79896878,-21.73506,82.355255)">
      <path
         style="fill:none;stroke:#9d0064;stroke-width:1.10913;stroke-linecap:round;stroke-linejoin:miter;stroke-miterlimit:4;stroke-dasharray:none;stroke-opacity:1"
         d="m 169.47775,124.94942 9.69202,9.69202"
         id="path1468" />
      <path
         style="fill:none;stroke:#9d0064;stroke-width:1.10913;stroke-linecap:round;stroke-linejoin:miter;stroke-miterlimit:4;stroke-dasharray:none;stroke-opacity:1"
         d="m 179.16977,124.94942 -9.69202,9.69202"
         id="path1470" />
    </g>
    <path
       sodipodi:type="star"
       style="fill:#93ac93;stroke:#93ac93;stroke-width:0.7854;stroke-linecap:butt;stroke-linejoin:round;stroke-miterlimit:4;stroke-dasharray:none;stroke-opacity:1"
       id="path1474"
       sodipodi:sides="3"
       sodipodi:cx="172.45033"
       sodipodi:cy="121.0998"
       sodipodi:r1="4.6578317"
       sodipodi:r2="2.3289158"
       sodipodi:arg1="-1.5707963"
       sodipodi:arg2="-0.52359878"
       inkscape:flatsided="true"
       inkscape:rounded="0"
       inkscape:randomized="0"
       d="m 172.45033,116.44197 4.0338,6.98675 -8.0676,0 z"
       inkscape:transform-center-y="-1.1644538"
       inkscape:transform-center-x="1.0806502e-06" />
    <path
       sodipodi:type="star"
       style="fill:#93ac93;stroke:#93ac93;stroke-width:0.7854;stroke-linecap:butt;stroke-linejoin:round;stroke-miterlimit:4;stroke-dasharray:none;stroke-opacity:1"
       id="path1476"
       sodipodi:sides="3"
       sodipodi:cx="162.86571"
       sodipodi:cy="80.557899"
       sodipodi:r1="4.6578317"
       sodipodi:r2="2.3289158"
       sodipodi:arg1="-1.5707963"
       sodipodi:arg2="-0.52359878"
       inkscape:flatsided="true"
       inkscape:rounded="0"
       inkscape:randomized="0"
       d="m 162.86571,75.900068 4.0338,6.986747 -8.0676,0 z"
       inkscape:transform-center-y="-1.1644538"
       inkscape:transform-center-x="1.0806502e-06" />
    <path
       sodipodi:type="star"
       style="fill:#93ac93;stroke:#93ac93;stroke-width:0.7854;stroke-linecap:butt;stroke-linejoin:round;stroke-miterlimit:4;stroke-dasharray:none;stroke-opacity:1"
       id="path1478"
       sodipodi:sides="3"
       sodipodi:cx="163.06403"
       sodipodi:cy="33.858875"
       sodipodi:r1="4.6578317"
       sodipodi:r2="2.3289158"
       sodipodi:arg1="-1.5707963"
       sodipodi:arg2="-0.52359878"
       inkscape:flatsided="true"
       inkscape:rounded="0"
       inkscape:randomized="0"
       d="m 163.06403,29.201044 4.0338,6.986747 -8.0676,0 z"
       inkscape:transform-center-y="-1.1644538"
       inkscape:transform-center-x="1.0806502e-06" />
    <path
       sodipodi:type="star"
       style="fill:#93ac93;stroke:#93ac93;stroke-width:0.7854;stroke-linecap:butt;stroke-linejoin:round;stroke-miterlimit:4;stroke-dasharray:none;stroke-opacity:1"
       id="path1480"
       sodipodi:sides="3"
       sodipodi:cx="81.627632"
       sodipodi:cy="5.9584274"
       sodipodi:r1="4.6578317"
       sodipodi:r2="2.3289158"
       sodipodi:arg1="-1.5707963"
       sodipodi:arg2="-0.52359878"
       inkscape:flatsided="true"
       inkscape:rounded="0"
       inkscape:randomized="0"
       d="m 81.627632,1.3005958 4.033801,6.9867476 -8.067601,-2e-7 z"
       inkscape:transform-center-y="-1.1644538"
       inkscape:transform-center-x="1.0806502e-06" />
    <path
       sodipodi:type="star"
       style="fill:#93ac93;stroke:#93ac93;stroke-width:0.7854;stroke-linecap:butt;stroke-linejoin:round;stroke-miterlimit:4;stroke-dasharray:none;stroke-opacity:1"
       id="path1482"
       sodipodi:sides="3"
       sodipodi:cx="129.12115"
       sodipodi:cy="4.5604138"
       sodipodi:r1="4.6578317"
       sodipodi:r2="2.3289158"
       sodipodi:arg1="-1.5707963"
       sodipodi:arg2="-0.52359878"
       inkscape:flatsided="true"
       inkscape:rounded="0"
       inkscape:randomized="0"
       d="m 129.12115,-0.09741783 4.03381,6.98674763 -8.06761,-2e-7 z"
       inkscape:transform-center-y="-1.1644538"
       inkscape:transform-center-x="1.0806502e-06" />
    <path
       sodipodi:type="star"
       style="fill:#93ac93;stroke:#93ac93;stroke-width:0.7854;stroke-linecap:butt;stroke-linejoin:round;stroke-miterlimit:4;stroke-dasharray:none;stroke-opacity:1"
       id="path1484"
       sodipodi:sides="3"
       sodipodi:cx="-10.186625"
       sodipodi:cy="81.123055"
       sodipodi:r1="4.6578317"
       sodipodi:r2="2.3289158"
       sodipodi:arg1="-1.5707963"
       sodipodi:arg2="-0.52359878"
       inkscape:flatsided="true"
       inkscape:rounded="0"
       inkscape:randomized="0"
       d="m -10.186624,76.465223 4.0338,6.986747 -8.067601,0 z"
       inkscape:transform-center-y="-1.1644538"
       inkscape:transform-center-x="1.0806502e-06" />
    <path
       sodipodi:type="star"
       style="fill:#93ac93;stroke:#93ac93;stroke-width:0.7854;stroke-linecap:butt;stroke-linejoin:round;stroke-miterlimit:4;stroke-dasharray:none;stroke-opacity:1"
       id="path1486"
       sodipodi:sides="3"
       sodipodi:cx="109.42309"
       sodipodi:cy="165.47874"
       sodipodi:r1="4.6578317"
       sodipodi:r2="2.3289158"
       sodipodi:arg1="-1.5707963"
       sodipodi:arg2="-0.52359878"
       inkscape:flatsided="true"
       inkscape:rounded="0"
       inkscape:randomized="0"
       d="m 109.42309,160.82091 4.0338,6.98675 -8.0676,0 z"
       inkscape:transform-center-y="-1.1644538"
       inkscape:transform-center-x="1.0806502e-06" />
    <path
       style="fill:none;stroke:#9d0064;stroke-width:0.757767;stroke-linecap:butt;stroke-linejoin:miter;stroke-miterlimit:3.6;stroke-dasharray:none;stroke-opacity:1;marker-end:url(#marker1624)"
       d="M 182.12043,55.391559 153.69221,67.997291"
       id="path1500" />
    <g
       id="g3667"
       transform="matrix(0.71284911,0,0,0.71284911,-16.94219,7.1178797)">
      <path
         id="rect3660"
         style="fill:#fd6768;fill-opacity:1;stroke:#fd6768;stroke-width:0.550862;stroke-linecap:round;stroke-linejoin:round;stroke-miterlimit:4;stroke-dasharray:none;stroke-dashoffset:0;stroke-opacity:1"
         d="m 89.452651,63.698612 h 4.427736 l -2.025468,9.196887 v 0 z"
         sodipodi:nodetypes="ccccc" />
      <path
         id="path3663"
         style="fill:#fd6768;fill-opacity:1;stroke:none;stroke-width:0.0310349;stroke-linecap:round;stroke-linejoin:round;stroke-miterlimit:4;stroke-dasharray:none;stroke-dashoffset:0;stroke-opacity:1"
         d="m 93.311041,76.391533 a 1.4561212,1.4561212 0 0 1 -1.456122,1.456121 1.4561212,1.4561212 0 0 1 -1.456121,-1.456121 1.4561212,1.4561212 0 0 1 1.456121,-1.456121 1.4561212,1.4561212 0 0 1 1.456122,1.456121 z" />
    </g>
    <g
       id="g3674"
       transform="matrix(0.71284911,0,0,0.71284911,105.96608,-5.1726082)">
      <path
         id="path3670"
         style="fill:#fd6768;fill-opacity:1;stroke:#fd6768;stroke-width:0.550862;stroke-linecap:round;stroke-linejoin:round;stroke-miterlimit:4;stroke-dasharray:none;stroke-dashoffset:0;stroke-opacity:1"
         d="m 89.452651,63.698612 h 4.427736 l -2.025468,9.196887 v 0 z"
         sodipodi:nodetypes="ccccc" />
      <path
         id="path3672"
         style="fill:#fd6768;fill-opacity:1;stroke:none;stroke-width:0.0310349;stroke-linecap:round;stroke-linejoin:round;stroke-miterlimit:4;stroke-dasharray:none;stroke-dashoffset:0;stroke-opacity:1"
         d="m 93.311041,76.391533 a 1.4561212,1.4561212 0 0 1 -1.456122,1.456121 1.4561212,1.4561212 0 0 1 -1.456121,-1.456121 1.4561212,1.4561212 0 0 1 1.456121,-1.456121 1.4561212,1.4561212 0 0 1 1.456122,1.456121 z" />
    </g>
    <text
       xml:space="preserve"
       id="text3694"
       style="font-style:italic;font-variant:normal;font-weight:normal;font-stretch:normal;font-size:9.87778px;line-height:1.25;font-family:'Century Schoolbook L';-inkscape-font-specification:'Century Schoolbook L, Italic';font-variant-ligatures:normal;font-variant-caps:normal;font-variant-numeric:normal;font-variant-east-asian:normal;white-space:pre;shape-inside:url(#rect3696);opacity:0.349607;mix-blend-mode:multiply;fill:#000000;fill-opacity:0.195975;stroke:none;stroke-width:0.0765421;stroke-linecap:round;stroke-linejoin:round;stroke-miterlimit:4;stroke-dasharray:none;stroke-opacity:1;filter:url(#filter3706);"
       transform="matrix(2.2922059,0,0,2.2922059,-64.647059,-141.68453)"><tspan
         x="20.886719"
         y="126.1232"><tspan
           style="font-style:italic;font-variant:normal;font-weight:normal;font-stretch:normal;font-size:9.87778px;font-family:'Century Schoolbook L';-inkscape-font-specification:'Century Schoolbook L, Italic';font-variant-ligatures:normal;font-variant-caps:normal;font-variant-numeric:normal;font-variant-east-asian:normal;fill:#000000;fill-opacity:0.195975;stroke:none;stroke-width:0.0765421;stroke-linecap:round;stroke-linejoin:round;stroke-miterlimit:4;stroke-dasharray:none;stroke-opacity:1">Very Grand Empire</tspan></tspan></text>
    <text
       xml:space="preserve"
       id="text3702"
       style="font-style:italic;font-variant:normal;font-weight:normal;font-stretch:normal;font-size:9.87778px;line-height:1.25;font-family:'Century Schoolbook L';-inkscape-font-specification:'Century Schoolbook L, Italic';font-variant-ligatures:normal;font-variant-caps:normal;font-variant-numeric:normal;font-variant-east-asian:normal;white-space:pre;shape-inside:url(#rect3704);mix-blend-mode:normal;fill:#3a3a3a;fill-opacity:1;stroke:none;stroke-width:0.0765421;stroke-linecap:round;stroke-linejoin:round;stroke-miterlimit:4;stroke-dasharray:none;stroke-opacity:1;"
       transform="matrix(2.2922059,0,0,2.2922059,-58.28577,-149.77684)"><tspan
         x="20.886719"
         y="126.1232"><tspan
           style="font-style:italic;font-variant:normal;font-weight:normal;font-stretch:normal;font-size:9.87778px;font-family:'Century Schoolbook L';-inkscape-font-specification:'Century Schoolbook L, Italic';font-variant-ligatures:normal;font-variant-caps:normal;font-variant-numeric:normal;font-variant-east-asian:normal;fill:#3a3a3a;fill-opacity:1;stroke:none;stroke-width:0.0765421;stroke-linecap:round;stroke-linejoin:round;stroke-miterlimit:4;stroke-dasharray:none;stroke-opacity:1">Very Grand Empire</tspan></tspan></text>
    <text
       xml:space="preserve"
       id="text3844"
       style="font-style:normal;font-variant:normal;font-weight:normal;font-stretch:normal;font-size:7.05556px;line-height:1.25;font-family:Z003;-inkscape-font-specification:'Z003, Normal';font-variant-ligatures:normal;font-variant-caps:normal;font-variant-numeric:normal;font-variant-east-asian:normal;white-space:pre;shape-inside:url(#rect3846);fill:#ffffff;fill-opacity:1;"
       transform="matrix(2.2192448,0,0,2.2192448,19.964605,-225.29443)"><tspan
         x="-20.595703"
         y="189.47106"><tspan
           style="font-style:normal;font-variant:normal;font-weight:normal;font-stretch:normal;font-size:7.05556px;font-family:Z003;-inkscape-font-specification:'Z003, Normal';font-variant-ligatures:normal;font-variant-caps:normal;font-variant-numeric:normal;font-variant-east-asian:normal;fill:#ffffff;fill-opacity:1">Legend</tspan></tspan></text>
    <path
       sodipodi:type="star"
       style="fill:#c83737;stroke:#c83737;stroke-width:1.19611;stroke-linecap:butt;stroke-linejoin:round;stroke-miterlimit:4;stroke-dasharray:none;stroke-opacity:1"
       id="path3852"
       sodipodi:sides="3"
       sodipodi:cx="-19.504223"
       sodipodi:cy="214.91599"
       sodipodi:r1="7.0935397"
       sodipodi:r2="3.5467701"
       sodipodi:arg1="-1.5707963"
       sodipodi:arg2="-0.52359878"
       inkscape:flatsided="true"
       inkscape:rounded="0"
       inkscape:randomized="0"
       d="m -19.504223,207.82245 6.143186,10.64031 -12.286372,-1e-5 z"
       inkscape:transform-center-y="-1.7733719"
       inkscape:transform-center-x="-9.3365888e-06" />
    <path
       sodipodi:type="star"
       style="fill:#93ac93;fill-opacity:1;stroke:#93ac93;stroke-width:1.19611;stroke-linecap:butt;stroke-linejoin:round;stroke-miterlimit:4;stroke-dasharray:none;stroke-opacity:1"
       id="path3854"
       sodipodi:sides="3"
       sodipodi:cx="-18.097116"
       sodipodi:cy="234.18854"
       sodipodi:r1="7.0935397"
       sodipodi:r2="3.5467701"
       sodipodi:arg1="-1.5707963"
       sodipodi:arg2="-0.52359878"
       inkscape:flatsided="true"
       inkscape:rounded="0"
       inkscape:randomized="0"
       d="m -18.097116,227.095 6.143185,10.64031 -12.286371,0 z"
       inkscape:transform-center-y="-1.7733719"
       inkscape:transform-center-x="-9.3365888e-06" />
    <g
       id="g3860"
       transform="matrix(1.0804832,0,0,1.0804832,-117.40015,180.76098)">
      <path
         id="path3856"
         style="fill:#fd6768;fill-opacity:1;stroke:#fd6768;stroke-width:0.550862;stroke-linecap:round;stroke-linejoin:round;stroke-miterlimit:4;stroke-dasharray:none;stroke-dashoffset:0;stroke-opacity:1"
         d="m 89.452651,63.698612 h 4.427736 l -2.025468,9.196887 v 0 z"
         sodipodi:nodetypes="ccccc" />
      <path
         id="path3858"
         style="fill:#fd6768;fill-opacity:1;stroke:none;stroke-width:0.0310349;stroke-linecap:round;stroke-linejoin:round;stroke-miterlimit:4;stroke-dasharray:none;stroke-dashoffset:0;stroke-opacity:1"
         d="m 93.311041,76.391533 a 1.4561212,1.4561212 0 0 1 -1.456122,1.456121 1.4561212,1.4561212 0 0 1 -1.456121,-1.456121 1.4561212,1.4561212 0 0 1 1.456121,-1.456121 1.4561212,1.4561212 0 0 1 1.456122,1.456121 z" />
    </g>
    <g
       id="g3866"
       transform="matrix(1.2422956,0,0,1.2422956,-234.18239,117.96049)">
      <path
         style="fill:none;stroke:#9d0064;stroke-width:1.10913;stroke-linecap:round;stroke-linejoin:miter;stroke-miterlimit:4;stroke-dasharray:none;stroke-opacity:1"
         d="m 169.47775,124.94942 9.69202,9.69202"
         id="path3862" />
      <path
         style="fill:none;stroke:#9d0064;stroke-width:1.10913;stroke-linecap:round;stroke-linejoin:miter;stroke-miterlimit:4;stroke-dasharray:none;stroke-opacity:1"
         d="m 179.16977,124.94942 -9.69202,9.69202"
         id="path3864" />
    </g>
    <text
       xml:space="preserve"
       id="text3872"
       style="font-style:normal;font-variant:normal;font-weight:normal;font-stretch:normal;font-size:7.05556px;line-height:1.25;font-family:Z003;-inkscape-font-specification:'Z003, Normal';font-variant-ligatures:normal;font-variant-caps:normal;font-variant-numeric:normal;font-variant-east-asian:normal;white-space:pre;shape-inside:url(#rect3874);fill:#ffffff;fill-opacity:1;"
       transform="matrix(1.5097935,0,0,1.5097935,26.35138,-68.500039)"><tspan
         x="-20.595703"
         y="189.47106"><tspan
           style="font-style:normal;font-variant:normal;font-weight:normal;font-stretch:normal;font-size:7.05556px;font-family:Z003;-inkscape-font-specification:'Z003, Normal';font-variant-ligatures:normal;font-variant-caps:normal;font-variant-numeric:normal;font-variant-east-asian:normal;fill:#ffffff;fill-opacity:1">Bad guys</tspan></tspan></text>
    <text
       xml:space="preserve"
       id="text3878"
       style="font-style:normal;font-variant:normal;font-weight:normal;font-stretch:normal;font-size:7.05556px;line-height:1.25;font-family:Z003;-inkscape-font-specification:'Z003, Normal';font-variant-ligatures:normal;font-variant-caps:normal;font-variant-numeric:normal;font-variant-east-asian:normal;white-space:pre;shape-inside:url(#rect3880);fill:#ffffff;fill-opacity:1;"
       transform="matrix(1.3036292,0,0,1.3036292,22.448185,-6.5991006)"><tspan
         x="-20.595703"
         y="189.47106"><tspan
           style="font-style:normal;font-variant:normal;font-weight:normal;font-stretch:normal;font-size:7.05556px;font-family:Z003;-inkscape-font-specification:'Z003, Normal';font-variant-ligatures:normal;font-variant-caps:normal;font-variant-numeric:normal;font-variant-east-asian:normal;fill:#ffffff;fill-opacity:1">Good guys</tspan></tspan></text>
    <text
       xml:space="preserve"
       id="text3884"
       style="font-style:normal;font-variant:normal;font-weight:normal;font-stretch:normal;font-size:7.05556px;line-height:1.25;font-family:Z003;-inkscape-font-specification:'Z003, Normal';font-variant-ligatures:normal;font-variant-caps:normal;font-variant-numeric:normal;font-variant-east-asian:normal;white-space:pre;shape-inside:url(#rect3886);fill:#ffffff;fill-opacity:1;"
       transform="matrix(1.4129177,0,0,1.4129177,23.936758,-4.6688724)"><tspan
         x="-20.595703"
         y="189.47106"><tspan
           style="font-style:normal;font-variant:normal;font-weight:normal;font-stretch:normal;font-size:7.05556px;font-family:Z003;-inkscape-font-specification:'Z003, Normal';font-variant-ligatures:normal;font-variant-caps:normal;font-variant-numeric:normal;font-variant-east-asian:normal;fill:#ffffff;fill-opacity:1">Something bad now.</tspan></tspan></text>
    <text
       xml:space="preserve"
       id="text3890"
       style="font-style:normal;font-variant:normal;font-weight:normal;font-stretch:normal;font-size:7.05556px;line-height:1.25;font-family:Z003;-inkscape-font-specification:'Z003, Normal';font-variant-ligatures:normal;font-variant-caps:normal;font-variant-numeric:normal;font-variant-east-asian:normal;white-space:pre;shape-inside:url(#rect3892);fill:#ffffff;fill-opacity:1;"
       transform="matrix(1.257488,0,0,1.257488,25.383866,44.860672)"><tspan
         x="-20.595703"
         y="189.47106"><tspan
           style="font-style:normal;font-variant:normal;font-weight:normal;font-stretch:normal;font-size:7.05556px;font-family:Z003;-inkscape-font-specification:'Z003, Normal';font-variant-ligatures:normal;font-variant-caps:normal;font-variant-numeric:normal;font-variant-east-asian:normal;fill:#ffffff;fill-opacity:1">Past bad.</tspan></tspan></text>
    <path
       style="opacity:0.444611;mix-blend-mode:multiply;fill:none;stroke:#564242;stroke-width:2.865;stroke-linecap:butt;stroke-linejoin:round;stroke-miterlimit:4;stroke-dasharray:none;stroke-opacity:1"
       d="m 178.21222,108.07453 c 41.84764,-19.44851 36.46686,-9.29934 54.09009,-4.60023"
       id="path3923"
       sodipodi:nodetypes="cc" />
    <circle
       style="opacity:1;fill:#674b4b;fill-opacity:1;stroke:none;stroke-width:2.86499;stroke-linecap:round;stroke-linejoin:round;stroke-miterlimit:4;stroke-dasharray:none;stroke-dashoffset:0;stroke-opacity:1"
       id="path3982"
       cx="232.30231"
       cy="103.4743"
       r="1.9932138" />
    <circle
       style="opacity:1;fill:#674b4b;fill-opacity:1;stroke:none;stroke-width:2.86499;stroke-linecap:round;stroke-linejoin:round;stroke-miterlimit:4;stroke-dasharray:none;stroke-dashoffset:0;stroke-opacity:1"
       id="circle3984"
       cx="178.21222"
       cy="108.07453"
       r="1.9932138" />
    <path
       style="fill:none;stroke:#9d0064;stroke-width:0.6477;stroke-linecap:butt;stroke-linejoin:miter;stroke-miterlimit:3.7;stroke-dasharray:none;stroke-opacity:1;marker-end:url(#Arrow2Lend)"
       d="m 214.66981,58.568363 -1.90984,59.822587"
       id="path868" />
    <text
       xml:space="preserve"
       id="text4012"
       style="font-style:normal;font-variant:normal;font-weight:normal;font-stretch:normal;font-size:7.05556px;line-height:1.25;font-family:Z003;-inkscape-font-specification:'Z003, Normal';font-variant-ligatures:normal;font-variant-caps:normal;font-variant-numeric:normal;font-variant-east-asian:normal;white-space:pre;shape-inside:url(#rect4014);fill:#5c4444;fill-opacity:1;stroke:#000000;stroke-width:0;stroke-linejoin:round;stroke-miterlimit:4;stroke-dasharray:none;stroke-opacity:1;"
       transform="matrix(0.46204858,-0.1589635,0.1589635,0.46204858,164.35209,8.8894102)"><tspan
         x="-20.595703"
         y="189.47106"><tspan
           style="font-style:normal;font-variant:normal;font-weight:normal;font-stretch:normal;font-size:7.05556px;font-family:Z003;-inkscape-font-specification:'Z003, Normal';font-variant-ligatures:normal;font-variant-caps:normal;font-variant-numeric:normal;font-variant-east-asian:normal;fill:#5c4444;fill-opacity:1;stroke:#000000;stroke-width:0;stroke-linejoin:round;stroke-miterlimit:4;stroke-dasharray:none;stroke-opacity:1">Dark Moth Trail</tspan></tspan></text>
    <rect
       style="fill:none;stroke:#17151c;stroke-width:2.865;stroke-linecap:round;stroke-linejoin:round;stroke-miterlimit:4;stroke-dasharray:none;stroke-opacity:1"
       id="rect4050"
       width="328.60318"
       height="328.6037"
       x="-33.250206"
       y="-23.879566" />
  </g>
</svg>
