<svg xmlns="http://www.w3.org/2000/svg" width="1252.8" height="1252.8" viewBox="0 0 331.5 331.5"><defs><path id="f" d="M-21 184h77v14h-77z"/><path id="c" d="M21 118h177v43H21z"/><path id="e" d="M21 118h177v43H21z"/><path id="g" d="M-21 184h77v14h-77z"/><path id="h" d="M-21 184h77v14h-77z"/><path id="i" d="M-21 184h77v14h-77z"/><path id="j" d="M-21 184h77v14h-77z"/><path id="l" d="M-21 184h77v14h-77z"/><marker id="b" refX="0" refY="0" orient="auto" overflow="visible"><path d="M-11-4L1 0l-12 4c2-2 2-6 0-8z" fill="#9d0064" fill-rule="evenodd" stroke="#9d0064" stroke-width=".66" stroke-linejoin="round"/></marker><marker id="a" refX="0" refY="0" orient="auto" overflow="visible"><path d="M-11-4L1 0l-12 4c2-2 2-6 0-8z" fill="#9d0064" fill-rule="evenodd" stroke="#9d0064" stroke-width=".66" stroke-linejoin="round"/></marker><marker id="k" refX="0" refY="0" orient="auto" overflow="visible"><path d="M-11-4L1 0l-12 4c2-2 2-6 0-8z" fill="#9d0064" fill-rule="evenodd" stroke="#9d0064" stroke-width=".66" stroke-linejoin="round"/></marker><filter id="d" x="0" width="1" y="-.1" height="1.1" color-interpolation-filters="sRGB"><feGaussianBlur stdDeviation=".2"/></filter></defs><g transform="translate(35 25)"><path fill="#7c6f91" stroke="#17151c" stroke-width="2.9" stroke-linecap="round" stroke-linejoin="round" d="M-33-24h328v329H-33z"/><path style="mix-blend-mode:multiply" d="M-33 75v65l46 9 67 70a1257 1257 0 0012 78h1a91 91 0 0012 3l19 5h149v-6l-74-36-33-8a1752 1752 0 01-38-11l-1-3a63 63 0 01-2-9 335 335 0 01-6-53l-1-11-67-71z" fill="#7c6f91" fill-opacity=".5" fill-rule="evenodd"/><path d="M-33-24v99l84 22 65 71a1303 1303 0 0010 77h2a85 85 0 0011 4l23 6 32 7 79 43h22V-24z" fill="#deaa87"/><path style="line-height:normal;font-variant-ligatures:normal;font-variant-position:normal;font-variant-caps:normal;font-variant-numeric:normal;font-variant-alternates:normal;font-variant-east-asian:normal;font-feature-settings:normal;font-variation-settings:normal;text-indent:0;text-align:start;text-decoration-line:none;text-decoration-style:solid;text-decoration-color:#000;text-transform:none;text-orientation:mixed;white-space:normal;shape-padding:0;shape-margin:0;inline-size:0;isolation:auto;mix-blend-mode:normal;solid-color:#000;solid-opacity:1" d="M102-10c-6 1-11 2-14 4-5 3-8 8-7 13l-6 27-1 5-1 1-8 1c-4 1-10 4-19 10C24 68 15 73 8 75l-8 1-11 4 1 3 10-4 9-2c7-1 17-6 39-23 8-7 14-9 18-10l8-1c1 0 2-1 2-3l2-5 6-28c-1-4 1-8 5-10 4-3 11-4 19-3 15 1 36 12 55 40v1c8 6 10 11 10 16l-6 16c-3 6-6 12-5 19s5 15 15 23h2c21-9 30-11 35-11 3 0 5 1 8 3l10 4 17 7c4 2 5 4 6 6l7 33c-2 12-6 15-11 18-5 2-11 3-16 8l-10 13c-3 2-6 4-8 8-1 3-1 7 1 14a235 235 0 0012 32c11 8 16 14 20 20l11 19 12 21h5l-15-22v-1c-5-6-7-12-11-18s-9-13-20-21l-12-30v-13c1-3 3-4 7-7l10-13c4-4 10-5 15-8 6-2 11-7 13-19v-1c-5-19-5-28-7-34-1-3-4-5-8-7a169 169 0 00-17-8l-10-4-8-3c-7 0-16 2-37 11-9-7-13-14-13-20-1-6 1-12 4-18 3-5 6-11 7-17 0-6-3-12-11-18-19-29-40-40-57-42l-6-1z" color="#000" font-weight="400" font-family="sans-serif" overflow="visible" fill="#916f6f" enable-background="accumulate"/><path d="M192 44l3 6h-6z" fill="#c83737" stroke="#c83737" stroke-width=".6" stroke-linejoin="round"/><path d="M124 97l7 12h-13z" fill="#93ac93" stroke="#93ac93" stroke-width="1.3" stroke-linejoin="round"/><g fill="none" stroke="#9d0064" stroke-width="1.1" stroke-linecap="round"><path d="M225 131l8 8M233 131l-8 8" stroke-width=".8788670000000001"/></g><path d="M199 53l3 5h-6zM212 51l3 5h-6zM205 47l3 5h-6zM199 42l3 5h-6zM283 123l2 5h-5z" fill="#c83737" stroke="#c83737" stroke-width=".6" stroke-linejoin="round"/><path d="M280 85l-41 45" fill="none" stroke="#9d0064" stroke-width=".6" stroke-miterlimit="3.7" marker-end="url(#a)"/><g fill="none" stroke="#9d0064" stroke-width="1.1" stroke-linecap="round"><path d="M215 137l8 8M223 137l-8 8" stroke-width=".8788670000000001"/></g><g fill="none" stroke="#9d0064" stroke-width="1.1" stroke-linecap="round"><path d="M204 131l8 8M212 131l-8 8" stroke-width=".8788670000000001"/></g><g fill="none" stroke="#9d0064" stroke-width="1.1" stroke-linecap="round"><path d="M145 38l8 7M153 38l-8 7" stroke-width=".8788670000000001"/></g><g fill="none" stroke="#9d0064" stroke-width="1.1" stroke-linecap="round"><path d="M131 38l8 8M139 38l-8 8" stroke-width=".8788670000000001"/></g><g fill="none" stroke="#9d0064" stroke-width="1.1" stroke-linecap="round"><path d="M82 18l8 8M90 18l-8 8" stroke-width=".8788670000000001"/></g><g fill="none" stroke="#9d0064" stroke-width="1.1" stroke-linecap="round"><path d="M114 182l7 8M121 182l-7 8" stroke-width=".8788670000000001"/></g><path d="M172 116l4 7h-8zM163 76l4 7h-8zM163 29l4 7h-8zM82 1l4 7h-8zM129 0l4 7h-8zM-10 76l4 7h-8zM109 161l4 7h-8z" fill="#93ac93" stroke="#93ac93" stroke-width=".8" stroke-linejoin="round"/><path d="M182 55l-28 13" fill="none" stroke="#9d0064" stroke-width=".8" stroke-miterlimit="3.6" marker-end="url(#b)"/><g fill="#fd6768"><path d="M47 53h3l-1 6h0z" stroke="#fd6768" stroke-width=".42771" stroke-linecap="round" stroke-linejoin="round"/><path d="M50 62a1 1 0 01-1 1 1 1 0 01-2-1 1 1 0 012-1 1 1 0 011 1z"/></g><g fill="#fd6768"><path d="M170 40h3l-2 7h0z" stroke="#fd6768" stroke-width=".42771" stroke-linecap="round" stroke-linejoin="round"/><path d="M172 49a1 1 0 01-1 1 1 1 0 01-1-1 1 1 0 011-1 1 1 0 011 1z"/></g><text style="line-height:1.25;-inkscape-font-specification:'Century Schoolbook L, Italic';font-variant-ligatures:normal;font-variant-caps:normal;font-variant-numeric:normal;font-variant-east-asian:normal;white-space:pre;shape-inside:url(#c);mix-blend-mode:multiply" transform="matrix(2.2922 0 0 2.2922 -65 -142)" font-style="italic" font-weight="400" font-size="9.9" font-family="Century Schoolbook L" opacity=".3" fill-opacity=".2" stroke-width=".1" stroke-linecap="round" stroke-linejoin="round" filter="url(#d)"><tspan x="20.9" y="126.1"><tspan style="-inkscape-font-specification:'Century Schoolbook L, Italic';font-variant-ligatures:normal;font-variant-caps:normal;font-variant-numeric:normal;font-variant-east-asian:normal">Very Grand Empire</tspan></tspan></text><text style="line-height:1.25;-inkscape-font-specification:'Century Schoolbook L, Italic';font-variant-ligatures:normal;font-variant-caps:normal;font-variant-numeric:normal;font-variant-east-asian:normal;white-space:pre;shape-inside:url(#e);mix-blend-mode:normal" transform="matrix(2.2922 0 0 2.2922 -58 -150)" font-style="italic" font-weight="400" font-size="9.9" font-family="Century Schoolbook L" fill="#3a3a3a" stroke-width=".1" stroke-linecap="round" stroke-linejoin="round"><tspan x="20.9" y="126.1"><tspan style="-inkscape-font-specification:'Century Schoolbook L, Italic';font-variant-ligatures:normal;font-variant-caps:normal;font-variant-numeric:normal;font-variant-east-asian:normal">Very Grand Empire</tspan></tspan></text><text style="line-height:1.25;-inkscape-font-specification:'Z003, Normal';font-variant-ligatures:normal;font-variant-caps:normal;font-variant-numeric:normal;font-variant-east-asian:normal;white-space:pre;shape-inside:url(#f)" transform="matrix(2.21924 0 0 2.21924 20 -225)" font-weight="400" font-size="7.1" font-family="Z003" fill="#fff"><tspan x="-20.6" y="189.5"><tspan style="-inkscape-font-specification:'Z003, Normal';font-variant-ligatures:normal;font-variant-caps:normal;font-variant-numeric:normal;font-variant-east-asian:normal">Legend</tspan></tspan></text><path d="M-20 208l7 10h-13z" fill="#c83737" stroke="#c83737" stroke-width="1.2" stroke-linejoin="round"/><path d="M-18 227l6 11h-12z" fill="#93ac93" stroke="#93ac93" stroke-width="1.2" stroke-linejoin="round"/><g fill="#fd6768"><path d="M-21 250h5l-2 10h0z" stroke="#fd6768" stroke-width=".6482880000000001" stroke-linecap="round" stroke-linejoin="round"/><path d="M-17 263a2 2 0 01-1 2 2 2 0 01-2-2 2 2 0 012-1 2 2 0 011 1z"/></g><g fill="none" stroke="#9d0064" stroke-width="1.1" stroke-linecap="round"><path d="M-24 273l12 12M-12 273l-12 12" stroke-width="1.36653"/></g><text style="line-height:1.25;-inkscape-font-specification:'Z003, Normal';font-variant-ligatures:normal;font-variant-caps:normal;font-variant-numeric:normal;font-variant-east-asian:normal;white-space:pre;shape-inside:url(#g)" transform="matrix(1.5098 0 0 1.5098 26 -69)" font-weight="400" font-size="7.1" font-family="Z003" fill="#fff"><tspan x="-20.6" y="189.5"><tspan style="-inkscape-font-specification:'Z003, Normal';font-variant-ligatures:normal;font-variant-caps:normal;font-variant-numeric:normal;font-variant-east-asian:normal">Bad guys</tspan></tspan></text><text style="line-height:1.25;-inkscape-font-specification:'Z003, Normal';font-variant-ligatures:normal;font-variant-caps:normal;font-variant-numeric:normal;font-variant-east-asian:normal;white-space:pre;shape-inside:url(#h)" transform="translate(22 -7) scale(1.30363)" font-weight="400" font-size="7.1" font-family="Z003" fill="#fff"><tspan x="-20.6" y="189.5"><tspan style="-inkscape-font-specification:'Z003, Normal';font-variant-ligatures:normal;font-variant-caps:normal;font-variant-numeric:normal;font-variant-east-asian:normal">Good guys</tspan></tspan></text><text style="line-height:1.25;-inkscape-font-specification:'Z003, Normal';font-variant-ligatures:normal;font-variant-caps:normal;font-variant-numeric:normal;font-variant-east-asian:normal;white-space:pre;shape-inside:url(#i)" transform="translate(24 -5) scale(1.41292)" font-weight="400" font-size="7.1" font-family="Z003" fill="#fff"><tspan x="-20.6" y="189.5"><tspan style="-inkscape-font-specification:'Z003, Normal';font-variant-ligatures:normal;font-variant-caps:normal;font-variant-numeric:normal;font-variant-east-asian:normal">Something bad now.</tspan></tspan></text><text style="line-height:1.25;-inkscape-font-specification:'Z003, Normal';font-variant-ligatures:normal;font-variant-caps:normal;font-variant-numeric:normal;font-variant-east-asian:normal;white-space:pre;shape-inside:url(#j)" transform="translate(25 45) scale(1.25749)" font-weight="400" font-size="7.1" font-family="Z003" fill="#fff"><tspan x="-20.6" y="189.5"><tspan style="-inkscape-font-specification:'Z003, Normal';font-variant-ligatures:normal;font-variant-caps:normal;font-variant-numeric:normal;font-variant-east-asian:normal">Past bad.</tspan></tspan></text><path style="mix-blend-mode:multiply" d="M178 108c42-19 37-9 54-5" opacity=".4" fill="none" stroke="#564242" stroke-width="2.9" stroke-linejoin="round"/><circle cx="232.3" cy="103.5" r="2" fill="#674b4b"/><circle cx="178.2" cy="108.1" r="2" fill="#674b4b"/><path d="M215 59l-2 59" fill="none" stroke="#9d0064" stroke-width=".6" stroke-miterlimit="3.7" marker-end="url(#k)"/><text style="line-height:1.25;-inkscape-font-specification:'Z003, Normal';font-variant-ligatures:normal;font-variant-caps:normal;font-variant-numeric:normal;font-variant-east-asian:normal;white-space:pre;shape-inside:url(#l)" transform="rotate(-19 109 -487) scale(.48863)" font-weight="400" font-size="7.1" font-family="Z003" fill="#5c4444" stroke="#000" stroke-width="0" stroke-linejoin="round"><tspan x="-20.6" y="189.5"><tspan style="-inkscape-font-specification:'Z003, Normal';font-variant-ligatures:normal;font-variant-caps:normal;font-variant-numeric:normal;font-variant-east-asian:normal">Dark Moth Trail</tspan></tspan></text><path fill="none" stroke="#17151c" stroke-width="2.9" stroke-linecap="round" stroke-linejoin="round" d="M-33-24h328v329H-33z"/></g></svg>